<?xml version="1.0" standalone="no"?>
<!DOCTYPE svg PUBLIC "-//W3C//DTD SVG 20010904//EN"
 "http://www.w3.org/TR/2001/REC-SVG-20010904/DTD/svg10.dtd">
<svg version="1.0" xmlns="http://www.w3.org/2000/svg"
 width="512.000000pt" height="512.000000pt" viewBox="0 0 512.000000 512.000000"
 preserveAspectRatio="xMidYMid meet">
<metadata>
Created by potrace 1.14, written by Peter Selinger 2001-2017
</metadata>
<g transform="translate(0.000000,512.000000) scale(0.100000,-0.100000)"
fill="#000000" stroke="none">
<path d="M460 5113 c-53 -10 -151 -64 -199 -108 -57 -54 -90 -106 -117 -185
-17 -52 -18 -141 -19 -1945 0 -1039 3 -1912 8 -1940 18 -111 102 -231 201
-289 79 -45 131 -56 301 -58 l160 -3 2 -250 c0 -137 2 -258 2 -268 1 -10 12
-29 26 -42 l24 -25 1711 0 1711 0 24 26 c14 15 25 39 26 53 1 14 1 134 2 267
l0 241 156 1 c127 1 168 5 222 21 133 41 235 145 275 280 16 51 17 208 18
1936 1 1034 -2 1906 -7 1939 -16 131 -113 257 -245 319 l-67 32 -2095 1
c-1152 1 -2106 -1 -2120 -3z m4191 -175 c66 -22 116 -65 146 -125 l28 -58 0
-1895 c0 -1829 -1 -1897 -19 -1944 -23 -61 -71 -111 -133 -138 l-48 -21 -2065
0 c-1907 0 -2068 1 -2104 17 -62 26 -99 59 -131 117 l-30 54 -1 1890 c-1 1497
2 1899 12 1933 24 82 75 136 159 169 43 17 4137 18 4186 1z m-500 -4363 c5
-54 4 -392 -2 -400 -5 -7 -542 -8 -1595 -5 l-1588 5 -1 200 c0 110 0 202 1
205 4 11 3184 6 3185 -5z"/>
<path d="M785 4686 c-120 -38 -211 -140 -232 -262 -5 -27 -8 -517 -8 -1089 1
-832 4 -1048 14 -1080 31 -94 98 -169 190 -212 l56 -27 1750 0 1750 1 58 22
c104 41 188 147 205 258 4 26 7 518 7 1093 l-1 1045 -28 62 c-33 73 -103 143
-174 176 l-47 22 -1750 2 c-1389 1 -1758 -1 -1790 -11z m3539 -180 c87 -51 81
36 82 -1136 0 -569 -3 -1049 -8 -1066 -12 -46 -46 -84 -91 -104 -37 -17 -134
-18 -1746 -18 -1873 0 -1752 -4 -1806 60 -13 16 -29 46 -34 66 -5 21 -8 475
-7 1073 l1 1035 25 36 c28 42 71 70 119 77 19 4 796 5 1728 4 l1694 -2 43 -25z"/>
<path d="M1144 4362 c-11 -1 -93 -76 -182 -166 -147 -147 -162 -166 -162 -197
1 -38 14 -60 48 -78 46 -24 73 -5 240 163 136 136 162 167 162 192 0 54 -50
95 -106 86z"/>
<path d="M1560 4358 c-29 -10 -715 -691 -735 -729 -8 -15 -12 -37 -10 -50 6
-35 50 -69 88 -69 28 0 69 38 394 363 254 254 364 371 369 391 14 59 -50 115
-106 94z"/>
<path d="M587 1834 c-14 -8 -29 -26 -34 -41 -5 -16 -9 -187 -8 -381 l1 -352
26 -26 26 -27 610 0 c335 1 618 3 628 7 11 3 27 19 37 35 15 26 17 66 17 383
l0 353 -24 30 -24 30 -615 1 c-490 1 -620 -2 -640 -12z m1133 -240 l0 -84
-503 0 -503 0 0 84 -1 84 503 1 504 0 0 -85z m0 -337 l0 -82 -497 1 c-274 1
-501 2 -504 3 -5 1 -5 149 0 159 0 1 226 2 501 2 l500 0 0 -83z"/>
<path d="M2937 1499 c-29 -17 -47 -67 -35 -101 20 -57 0 -55 801 -54 l739 1
24 28 c31 36 31 77 -1 111 l-24 26 -743 0 c-509 -1 -749 -4 -761 -11z"/>
</g>
</svg>
